<svg width="47" height="34" viewBox="0 0 47 34" fill="none" xmlns="http://www.w3.org/2000/svg">
<path d="M1.49878 3.64367L21.0821 15.0592C21.7401 15.4417 22.5913 15.623 23.4478 15.623C24.3042 15.623 25.1554 15.4417 25.8134 15.0592L45.3968 3.64367C46.6736 2.8985 47.8799 0 45.5378 0H1.36039C-0.981773 0 0.22456 2.8985 1.49878 3.64367ZM45.9895 9.8855L25.8134 21.2953C24.9257 21.7997 24.3042 21.8592 23.4478 21.8592C22.5913 21.8592 21.9699 21.7997 21.0821 21.2953C20.1943 20.791 2.45706 10.7015 1.00789 9.88267C-0.0104401 9.30467 4.21973e-06 9.98183 4.21973e-06 10.5032V31.1667C4.21973e-06 32.3567 1.47789 34 2.61111 34H44.3889C45.5221 34 47 32.3567 47 31.1667V10.506C47 9.98467 47.0104 9.3075 45.9895 9.8855Z" fill="#0B74BC"/>
</svg>
